<?xml version="1.0" encoding="UTF-8"?>
<svg xmlns="http://www.w3.org/2000/svg" xmlns:xlink="http://www.w3.org/1999/xlink" version="1.1" id="Capa_1" x="0px" y="0px" viewBox="0 0 512 512" style="enable-background:new 0 0 512 512;" xml:space="preserve" width="512" height="512">
<g>
	<path style="fill:none;stroke:#000000;stroke-width:15;stroke-linecap:round;stroke-linejoin:round;stroke-miterlimit:10;" d="&#10;&#9;&#9;M499.804,454.458l-45.346,45.346c-6.261,6.261-16.412,6.261-22.673,0L216.391,284.41c-6.261-6.261-6.261-16.412,0-22.673&#10;&#9;&#9;l45.346-45.346c6.261-6.261,16.412-6.261,22.673,0l215.394,215.394C506.065,438.046,506.065,448.197,499.804,454.458z"/>
	
		<line style="fill:none;stroke:#000000;stroke-width:15;stroke-linecap:round;stroke-linejoin:round;stroke-miterlimit:10;" x1="267.406" y1="335.425" x2="403.444" y2="335.425"/>
	
		<line style="fill:none;stroke:#000000;stroke-width:15;stroke-linecap:round;stroke-linejoin:round;stroke-miterlimit:10;" x1="233.396" y1="244.733" x2="312.752" y2="244.733"/>
	
		<line style="fill:none;stroke:#000000;stroke-width:15;stroke-linecap:round;stroke-linejoin:round;stroke-miterlimit:10;" x1="328.145" y1="290.079" x2="358.098" y2="290.079"/>
	
		<line style="fill:none;stroke:#000000;stroke-width:15;stroke-linecap:round;stroke-linejoin:round;stroke-miterlimit:10;" x1="222.06" y1="290.079" x2="296.081" y2="290.079"/>
	
		<line style="fill:none;stroke:#000000;stroke-width:15;stroke-linecap:round;stroke-linejoin:round;stroke-miterlimit:10;" x1="312.752" y1="380.771" x2="448.79" y2="380.771"/>
	
		<line style="fill:none;stroke:#000000;stroke-width:15;stroke-linecap:round;stroke-linejoin:round;stroke-miterlimit:10;" x1="416.323" y1="426.117" x2="494.136" y2="426.117"/>
	
		<line style="fill:none;stroke:#000000;stroke-width:15;stroke-linecap:round;stroke-linejoin:round;stroke-miterlimit:10;" x1="358.098" y1="426.117" x2="384.258" y2="426.117"/>
	
		<line style="fill:none;stroke:#000000;stroke-width:15;stroke-linecap:round;stroke-linejoin:round;stroke-miterlimit:10;" x1="403.444" y1="471.463" x2="482.799" y2="471.463"/>
	
		<line style="fill:none;stroke:#000000;stroke-width:15;stroke-linecap:round;stroke-linejoin:round;stroke-miterlimit:10;" x1="239.064" y1="239.064" x2="167.823" y2="167.823"/>
	
		<polyline style="fill:none;stroke:#000000;stroke-width:15;stroke-linecap:round;stroke-linejoin:round;stroke-miterlimit:10;" points="&#10;&#9;&#9;188.57,245.252 167.823,328.145 147.075,245.252 87.661,306.666 111.14,224.505 28.979,247.984 90.393,188.57 7.5,167.823 &#10;&#9;&#9;90.393,147.075 28.979,87.661 111.14,111.14 87.661,28.979 147.075,90.393 167.823,7.5 188.57,90.393 247.984,28.979 &#10;&#9;&#9;224.505,111.14 306.666,87.661 245.252,147.075 328.145,167.823 245.252,188.57 &#9;"/>
</g>















</svg>
