<svg id="&#x421;&#x43B;&#x43E;&#x439;_1" height="512" viewBox="0 0 128 128" width="512" xmlns="http://www.w3.org/2000/svg"><path d="m50 82.76a2 2 0 0 1 -1-.29 2 2 0 0 1 -1-1.71v-33.52a2 2 0 0 1 2.93-1.77l32 16.76a2 2 0 0 1 0 3.54l-32 16.76a1.91 1.91 0 0 1 -.93.23zm2-32.22v26.92l25.69-13.46z"/><path d="m89.77 124h-51.54a10.24 10.24 0 0 1 -10.23-10.23v-99.54a10.24 10.24 0 0 1 10.23-10.23h51.54a10.24 10.24 0 0 1 10.23 10.23v99.54a10.24 10.24 0 0 1 -10.23 10.23zm-51.54-116a6.24 6.24 0 0 0 -6.23 6.23v99.54a6.24 6.24 0 0 0 6.23 6.23h51.54a6.24 6.24 0 0 0 6.23-6.23v-99.54a6.24 6.24 0 0 0 -6.23-6.23z"/><path d="m22 110h-5a6.93 6.93 0 0 1 -7-7v-78a6.93 6.93 0 0 1 7-7h5a2 2 0 0 1 0 4h-5a2.9 2.9 0 0 0 -3 3v78a2.9 2.9 0 0 0 3 3h5a2 2 0 0 1 0 4z"/><path d="m4.39 98a4.4 4.4 0 0 1 -4.39-4.39v-59.22a4.4 4.4 0 0 1 4.39-4.39 2 2 0 1 1 0 4 .38.38 0 0 0 -.39.39v59.22a.38.38 0 0 0 .39.39 2 2 0 1 1 0 4z"/><path d="m111 110h-5a2 2 0 0 1 0-4h5a2.9 2.9 0 0 0 3-3v-78a2.9 2.9 0 0 0 -3-3h-5a2 2 0 0 1 0-4h5a6.93 6.93 0 0 1 7 7v78a6.93 6.93 0 0 1 -7 7z"/><path d="m123.61 98a2 2 0 0 1 0-4 .38.38 0 0 0 .39-.39v-59.22a.38.38 0 0 0 -.39-.39 2 2 0 0 1 0-4 4.4 4.4 0 0 1 4.39 4.39v59.22a4.4 4.4 0 0 1 -4.39 4.39z"/></svg>