<svg height="496pt" viewBox="0 0 496 496" width="496pt" xmlns="http://www.w3.org/2000/svg"><path d="m312 168.617188v-.617188h-.59375l-97.636719-101.542969c-1.816406-1.890625-4.464843-2.800781-7.035156-2.351562-2.582031.414062-4.804687 2.070312-5.941406 4.429687l-200 416c-1.496094 3.113282-.8320315 6.824219 1.648437 9.207032 1.519532 1.480468 3.527344 2.257812 5.558594 2.257812 1.257812 0 2.519531-.296875 3.6875-.894531l400-208c2.242188-1.167969 3.792969-3.320313 4.199219-5.808594.410156-2.496094-.375-5.023437-2.125-6.839844zm32 56.367187v79.28125l-32 16.636719v-129.199219zm-144 154.160156-32 16.640625v-222.121094l32-66.558593zm16-287.28125 32 33.28125v229.039063l-32 16.640625zm48 49.921875 32 33.277344v154.160156l-32 16.640625zm-208 264.839844v25.375h16v-58.65625l80-166.398438v197.160157l-32 16.636719v-84.742188h-16v93.0625l-78.382812 40.761719zm304-110.679688v-54.320312l34.824219 36.214844zm0 0"/><path d="m432 104c22.054688 0 40-17.945312 40-40s-17.945312-40-40-40-40 17.945312-40 40 17.945312 40 40 40zm0-64c13.230469 0 24 10.769531 24 24s-10.769531 24-24 24-24-10.769531-24-24 10.769531-24 24-24zm0 0"/><path d="m330.339844 154.347656 55.996094-56 11.3125 11.316406-55.996094 55.996094zm0 0"/><path d="m402.34375 162.34375 11.3125 11.3125c18.9375-18.9375 49.75-18.9375 68.6875 0l11.3125-11.3125c-25.167969-25.175781-66.144531-25.175781-91.3125 0zm0 0"/><path d="m333.65625 93.65625c25.175781-25.175781 25.175781-66.136719 0-91.3125l-11.3125 11.3125c18.9375 18.9375 18.9375 49.75 0 68.6875zm0 0"/><path d="m480 208c0-17.648438-14.351562-32-32-32s-32 14.351562-32 32 14.351562 32 32 32 32-14.351562 32-32zm-48 0c0-8.824219 7.175781-16 16-16s16 7.175781 16 16-7.175781 16-16 16-16-7.175781-16-16zm0 0"/><path d="m288 80c17.648438 0 32-14.351562 32-32s-14.351562-32-32-32-32 14.351562-32 32 14.351562 32 32 32zm0-48c8.824219 0 16 7.175781 16 16s-7.175781 16-16 16-16-7.175781-16-16 7.175781-16 16-16zm0 0"/><path d="m368 192h32v16h-32zm0 0"/><path d="m288 96h16v32h-16zm0 0"/><path d="m216 48v8h16v-8c0-26.472656-21.527344-48-48-48v16c17.648438 0 32 14.351562 32 32zm0 0"/><path d="m448 264h-8v16h8c17.648438 0 32 14.351562 32 32h16c0-26.472656-21.527344-48-48-48zm0 0"/></svg>