<svg height="512" viewBox="0 0 64 64" width="512" xmlns="http://www.w3.org/2000/svg"><g id="Layer_4" data-name="Layer 4"><path d="m63.707 3.292a1 1 0 0 0 -.873-.278l-16.963 2.845a1 1 0 0 0 -.754 1.379c.194.456.424.88.636 1.32l-23.553 23.702a3.041 3.041 0 0 0 -.65 3.289c.02.05.045.095.066.145l-21.325 21.467a1 1 0 0 0 0 1.409l2.12 2.135a1 1 0 0 0 1.419 0l20.388-20.521a17.21 17.21 0 0 0 3.71 3.491 8.229 8.229 0 0 0 -1.928 5.306 6.247 6.247 0 0 1 -1.842 4.447l-1.865 1.865a1 1 0 1 0 1.414 1.414l1.865-1.865a8.234 8.234 0 0 0 2.428-5.861 6.249 6.249 0 0 1 1.649-4.235 20.022 20.022 0 0 0 2 .962 3.051 3.051 0 0 0 1.157.229 2.991 2.991 0 0 0 2.127-.885l23.52-23.673q.653.319 1.326.612a.989.989 0 0 0 .4.082 1 1 0 0 0 .986-.836l2.821-17.073a1 1 0 0 0 -.279-.872zm-11.818 21.855-12.374-7.473 1.376-1.385 12.374 7.472zm-4.241 4.268-12.374-7.473 2.79-2.808 12.374 7.473zm-2.827 2.845-12.374-7.472 1.376-1.388 12.377 7.475zm-4.241 4.269-12.374-7.473 2.794-2.808 12.37 7.473zm-37.459 22.052-.711-.715 20.127-20.258c.167.308.343.609.524.9zm30.391-14.938a1.012 1.012 0 0 1 -1.107.213 15.663 15.663 0 0 1 -9-9.056 1.046 1.046 0 0 1 .215-1.131l.3-.307 2.555 1.543a1 1 0 0 0 1.034-1.712l-2.13-1.293 1.376-1.386 12.374 7.473-1.376 1.385-7.236-4.372a1 1 0 1 0 -1.034 1.712l6.817 4.123zm25.888-24.023a26.771 26.771 0 0 1 -3.842-2.266 1 1 0 1 0 -1.158 1.628c.7.5 1.447.969 2.214 1.412l-1.898 1.906-12.374-7.471 4.38-4.409a26.989 26.989 0 0 0 4.627 6.029 1 1 0 1 0 1.39-1.437 25.567 25.567 0 0 1 -5.257-7.395l14.3-2.4z"/><path d="m25.707 58.293a1 1 0 0 0 -1.414 1.414l1 1a1 1 0 0 0 1.414-1.414z"/><path d="m19.293 58.293-1 1a1 1 0 1 0 1.414 1.414l1-1a1 1 0 0 0 -1.414-1.414z"/><path d="m19.707 52.293a1 1 0 0 0 -1.414 1.414l1 1a1 1 0 0 0 1.414-1.414z"/></g></svg>