<?xml version="1.0" encoding="UTF-8" standalone="no"?>
<!-- Created with Inkscape (http://www.inkscape.org/) -->

<svg
   version="1.1"
   id="svg3648"
   xml:space="preserve"
   width="682.66669"
   height="682.66669"
   viewBox="0 0 682.66669 682.66669"
   xmlns="http://www.w3.org/2000/svg"
   xmlns:svg="http://www.w3.org/2000/svg"><defs
     id="defs3652"><clipPath
       clipPathUnits="userSpaceOnUse"
       id="clipPath3662"><path
         d="M 0,512 H 512 V 0 H 0 Z"
         id="path3660" /></clipPath><clipPath
       clipPathUnits="userSpaceOnUse"
       id="clipPath3682"><path
         d="M 0,512 H 512 V 0 H 0 Z"
         id="path3680" /></clipPath></defs><g
     id="g3654"
     transform="matrix(1.3333333,0,0,-1.3333333,0,682.66667)"><g
       id="g3656"><g
         id="g3658"
         clip-path="url(#clipPath3662)"><g
           id="g3664"
           transform="translate(482.7041,391.084)"><path
             d="m 0,0 -12.423,-14.622 -19.089,1.944 10.069,-16.332 -7.747,-17.553 18.645,4.528 14.3,-12.791 1.455,19.13 16.586,9.646 -17.746,7.296 z"
             style="fill:none;stroke:#000000;stroke-width:15;stroke-linecap:round;stroke-linejoin:round;stroke-miterlimit:10;stroke-dasharray:none;stroke-opacity:1"
             id="path3666" /></g><g
           id="g3668"
           transform="translate(195.6187,490.6572)"><path
             d="m 0,0 -7.033,-23.092 -23.011,-7.299 19.791,-13.823 -0.17,-24.139 19.264,14.549 22.907,-7.62 -7.885,22.815 14.326,19.429 -24.137,-0.448 z"
             style="fill:none;stroke:#000000;stroke-width:15;stroke-linecap:round;stroke-linejoin:round;stroke-miterlimit:10;stroke-dasharray:none;stroke-opacity:1"
             id="path3670" /></g></g></g><g
       id="g3672"
       transform="translate(356.333,110.5889)"><path
         d="m 0,0 -8.891,-18.389 -20.188,-3.1 14.741,-14.137 -3.288,-20.157 18.001,9.65 18.156,-9.356 -3.616,20.1 14.51,14.375 -20.237,2.773 z"
         style="fill:none;stroke:#000000;stroke-width:15;stroke-linecap:round;stroke-linejoin:round;stroke-miterlimit:10;stroke-dasharray:none;stroke-opacity:1"
         id="path3674" /></g><g
       id="g3676"><g
         id="g3678"
         clip-path="url(#clipPath3682)"><g
           id="g3684"
           transform="translate(30.9873,124.4814)"><path
             d="m 0,0 -5.602,-17.854 -17.885,-5.507 15.251,-10.845 -0.289,-18.711 15.027,11.152 17.707,-6.056 -5.963,17.737 11.233,14.968 -18.714,-0.191 z"
             style="fill:none;stroke:#000000;stroke-width:15;stroke-linecap:round;stroke-linejoin:round;stroke-miterlimit:10;stroke-dasharray:none;stroke-opacity:1"
             id="path3686" /></g><g
           id="g3688"
           transform="translate(126.1196,185.3662)"><path
             d="m 0,0 c 12.843,26.548 28.801,52.478 53.735,72.424 17.953,13.962 36.903,22.937 58.924,27.543"
             style="fill:none;stroke:#000000;stroke-width:15;stroke-linecap:round;stroke-linejoin:round;stroke-miterlimit:10;stroke-dasharray:none;stroke-opacity:1"
             id="path3690" /></g><g
           id="g3692"
           transform="translate(101.792,110.5889)"><path
             d="M 0,0 C 1.685,9.698 3.716,19.281 6.929,28.08"
             style="fill:none;stroke:#000000;stroke-width:15;stroke-linecap:round;stroke-linejoin:round;stroke-miterlimit:10;stroke-dasharray:none;stroke-opacity:1"
             id="path3694" /></g><g
           id="g3696"
           transform="translate(180.3921,21.3428)"><path
             d="M 0,0 C 0,0 -8.146,197.248 58.387,263.99"
             style="fill:none;stroke:#000000;stroke-width:15;stroke-linecap:round;stroke-linejoin:round;stroke-miterlimit:10;stroke-dasharray:none;stroke-opacity:1"
             id="path3698" /></g><g
           id="g3700"
           transform="translate(238.7788,285.333)"><path
             d="M 0,0 C 33.832,-48.486 48.792,-107.326 58.333,-165.563"
             style="fill:none;stroke:#000000;stroke-width:15;stroke-linecap:round;stroke-linejoin:round;stroke-miterlimit:10;stroke-dasharray:none;stroke-opacity:1"
             id="path3702" /></g><g
           id="g3704"
           transform="translate(238.7788,285.333)"><path
             d="M 0,0 C 0,0 135.448,-1.781 209.451,-196.854"
             style="fill:none;stroke:#000000;stroke-width:15;stroke-linecap:round;stroke-linejoin:round;stroke-miterlimit:10;stroke-dasharray:none;stroke-opacity:1"
             id="path3706" /></g><g
           id="g3708"
           transform="translate(368.2637,320.5459)"><path
             d="M 0,0 C 50.961,-1.922 97.838,-23.861 136.236,-55.084"
             style="fill:none;stroke:#000000;stroke-width:15;stroke-linecap:round;stroke-linejoin:round;stroke-miterlimit:10;stroke-dasharray:none;stroke-opacity:1"
             id="path3710" /></g><g
           id="g3712"
           transform="translate(238.7788,285.333)"><path
             d="M 0,0 C 9.895,6.364 19.869,11.352 29.842,16.338 46.797,22.321 63.753,30.3 81.529,31.782"
             style="fill:none;stroke:#000000;stroke-width:15;stroke-linecap:round;stroke-linejoin:round;stroke-miterlimit:10;stroke-dasharray:none;stroke-opacity:1"
             id="path3714" /></g><g
           id="g3716"
           transform="translate(238.7788,285.333)"><path
             d="M 0,0 C 0,0 52.372,135.302 197.482,136.729"
             style="fill:none;stroke:#000000;stroke-width:15;stroke-linecap:round;stroke-linejoin:round;stroke-miterlimit:10;stroke-dasharray:none;stroke-opacity:1"
             id="path3718" /></g><g
           id="g3720"
           transform="translate(267.665,406.7041)"><path
             d="m 0,0 c 8.82,17.322 20.146,33.484 34.383,46.794 4.138,3.871 8.513,7.492 13.099,10.82"
             style="fill:none;stroke:#000000;stroke-width:15;stroke-linecap:round;stroke-linejoin:round;stroke-miterlimit:10;stroke-dasharray:none;stroke-opacity:1"
             id="path3722" /></g><g
           id="g3724"
           transform="translate(238.7788,285.333)"><path
             d="m 0,0 c -0.079,24.315 3.911,48.251 9.895,72.186 0,0.997 0.997,2.992 1.656,4.054"
             style="fill:none;stroke:#000000;stroke-width:15;stroke-linecap:round;stroke-linejoin:round;stroke-miterlimit:10;stroke-dasharray:none;stroke-opacity:1"
             id="path3726" /></g><g
           id="g3728"
           transform="translate(238.7788,285.333)"><path
             d="M 0,0 C 0,0 -31.961,118.196 -140.605,135.302"
             style="fill:none;stroke:#000000;stroke-width:15;stroke-linecap:round;stroke-linejoin:round;stroke-miterlimit:10;stroke-dasharray:none;stroke-opacity:1"
             id="path3730" /></g><g
           id="g3732"
           transform="translate(48.1084,314.1211)"><path
             d="M 0,0 C -13.293,-7.625 -26.494,-18.016 -39.303,-31.808"
             style="fill:none;stroke:#000000;stroke-width:15;stroke-linecap:round;stroke-linejoin:round;stroke-miterlimit:10;stroke-dasharray:none;stroke-opacity:1"
             id="path3734" /></g><g
           id="g3736"
           transform="translate(238.7788,285.333)"><path
             d="M 0,0 C 0,0 -74.737,62.906 -155.761,42.876"
             style="fill:none;stroke:#000000;stroke-width:15;stroke-linecap:round;stroke-linejoin:round;stroke-miterlimit:10;stroke-dasharray:none;stroke-opacity:1"
             id="path3738" /></g><g
           id="g3740"
           transform="translate(238.7788,285.333)"><path
             d="M 0,0 C 0,0 -158.562,35.391 -229.974,-116.965"
             style="fill:none;stroke:#000000;stroke-width:15;stroke-linecap:round;stroke-linejoin:round;stroke-miterlimit:10;stroke-dasharray:none;stroke-opacity:1"
             id="path3742" /></g><g
           id="g3744"
           transform="translate(442.2451,250.2412)"><path
             d="M 0,0 C 9.651,0 9.668,15 0,15 -9.651,15 -9.668,0 0,0"
             style="fill:#000000;fill-opacity:1;fill-rule:nonzero;stroke:none"
             id="path3746" /></g><g
           id="g3748"
           transform="translate(479.6445,150.0186)"><path
             d="M 0,0 C 9.652,0 9.668,15 0,15 -9.651,15 -9.668,0 0,0"
             style="fill:#000000;fill-opacity:1;fill-rule:nonzero;stroke:none"
             id="path3750" /></g><g
           id="g3752"
           transform="translate(243.2788,100.6553)"><path
             d="M 0,0 C 9.652,0 9.668,15 0,15 -9.652,15 -9.667,0 0,0"
             style="fill:#000000;fill-opacity:1;fill-rule:nonzero;stroke:none"
             id="path3754" /></g><g
           id="g3756"
           transform="translate(101.792,32.5479)"><path
             d="M 0,0 C 9.652,0 9.668,15 0,15 -9.652,15 -9.668,0 0,0"
             style="fill:#000000;fill-opacity:1;fill-rule:nonzero;stroke:none"
             id="path3758" /></g><g
           id="g3760"
           transform="translate(51.793,377.3896)"><path
             d="M 0,0 C 9.651,0 9.667,15 0,15 -9.652,15 -9.668,0 0,0"
             style="fill:#000000;fill-opacity:1;fill-rule:nonzero;stroke:none"
             id="path3762" /></g><g
           id="g3764"
           transform="translate(374.9258,447.6953)"><path
             d="M 0,0 C 9.651,0 9.668,15 0,15 -9.652,15 -9.668,0 0,0"
             style="fill:#000000;fill-opacity:1;fill-rule:nonzero;stroke:none"
             id="path3766" /></g></g></g></g></svg>
